/* XPM */
static char * close_prelight_xpm[] = {
"16 16 5 1",
" 	c None",
".	c #2C3336",
"+	c #293033",
"@	c #262C2F",
"#	c #2B3135",
"     .+@@+.     ",
"   .@@@@@@@@.   ",
"  #@@@@@@@@@@#  ",
" .@@@@@@@@@@@@. ",
" @@@@@@@@@@@@@@ ",
".@@@@@@@@@@@@@@.",
"+@@@@@@@@@@@@@@+",
"@@@@@@@@@@@@@@@@",
"@@@@@@@@@@@@@@@@",
"+@@@@@@@@@@@@@@+",
".@@@@@@@@@@@@@@.",
" @@@@@@@@@@@@@@ ",
" .@@@@@@@@@@@@. ",
"  #@@@@@@@@@@#  ",
"   .@@@@@@@@.   ",
"     .+@@+.     "};
